<svg width="24" height="24" viewBox="0 0 24 24" fill="none" xmlns="http://www.w3.org/2000/svg">
<g id="mdi:gmail">
<path id="Vector" d="M19.998 18.002H17.998V9.25195L11.998 13.002L5.99805 9.25195V18.002H3.99805V6.00195H5.19805L11.998 10.252L18.798 6.00195H19.998V18.002ZM19.998 4.00195H3.99805C2.88805 4.00195 1.99805 4.89195 1.99805 6.00195V18.002C1.99805 18.5324 2.20876 19.0411 2.58383 19.4162C2.95891 19.7912 3.46761 20.002 3.99805 20.002H19.998C20.5285 20.002 21.0372 19.7912 21.4123 19.4162C21.7873 19.0411 21.998 18.5324 21.998 18.002V6.00195C21.998 5.47152 21.7873 4.96281 21.4123 4.58774C21.0372 4.21267 20.5285 4.00195 19.998 4.00195Z" fill="#604195"/>
</g>
</svg>
