<svg width="24" height="24" viewBox="0 0 24 24" fill="none" xmlns="http://www.w3.org/2000/svg">
<g id="mdi:gmail">
<path id="Vector" d="M20.6296 15.1111C19.3852 15.1111 18.037 14.9333 16.8963 14.5778H16.5852C16.2741 14.5778 16.0667 14.6667 15.8593 14.8444L13.5778 16.8C10.6741 15.4667 8.18519 13.4222 6.73333 10.9333L9.01482 8.97778C9.32593 8.71111 9.42963 8.35556 9.22222 8.08889C8.91111 7.11111 8.7037 5.95556 8.7037 4.88889C8.7037 4.44444 8.18519 4 7.66667 4H4.03704C3.51852 4 3 4.44444 3 4.88889C3 13.2444 10.8815 20 20.6296 20C21.1481 20 21.6667 19.5556 21.6667 19.1111V16C21.6667 15.5556 21.1481 15.1111 20.6296 15.1111ZM5.07407 5.77778H6.62963C6.73333 6.57778 6.94074 7.37778 7.14815 8.08889L5.9037 9.15556C5.48889 8.08889 5.17778 6.93333 5.07407 5.77778ZM19.5926 18.2222C18.2444 18.1333 16.8963 17.8667 15.6519 17.5111L16.8963 16.4444C17.7259 16.6222 18.6593 16.8 19.5926 16.8V18.2222Z" fill="#604195"/>
</g>
</svg>
